<svg width="64" height="64" viewBox="0 0 64 64" xmlns="http://www.w3.org/2000/svg" xmlns:xlink="http://www.w3.org/1999/xlink">
    <title>
        Hyperterm-Mark
    </title>
    <defs>
        <linearGradient x1="47.952%" y1="97.595%" x2="47.952%" y2="0%" id="c">
            <stop stop-color="#FFB300" offset="0%"/>
            <stop stop-color="#DD3939" offset="61.372%"/>
            <stop stop-color="#FF1BB4" offset="100%"/>
        </linearGradient>
        <path d="M0 4.994A4.997 4.997 0 0 1 4.995 0h54.01A4.99 4.99 0 0 1 64 4.994v46.012A4.997 4.997 0 0 1 59.005 56H4.995A4.99 4.99 0 0 1 0 51.006V4.994z" id="a"/>
        <mask id="d" x="0" y="0" width="64" height="56" fill="#fff">
            <use xlink:href="#a"/>
        </mask>
        <path d="M0 4.994A4.997 4.997 0 0 1 4.995 0h54.01A4.99 4.99 0 0 1 64 4.994v46.012A4.997 4.997 0 0 1 59.005 56H4.995A4.99 4.99 0 0 1 0 51.006V4.994z" id="b"/>
        <mask id="e" x="0" y="0" width="64" height="56" fill="#fff">
            <use xlink:href="#b"/>
        </mask>
    </defs>
    <g fill="none" fill-rule="evenodd">
        <g transform="translate(0 4)">
            <use stroke="url(#c)" mask="url(#d)" stroke-width="6" fill="#000" xlink:href="#a"/>
            <path fill="#FFF" d="M19.037 20.894h9.622v1.874h-9.623zM16.102 16.038l-3.953-2.09 2.867-7.11-8.472 7.635 3.722 2.518-2.637 6.684z"/>
        </g>
        <g transform="translate(0 4)">
            <use stroke="url(#c)" mask="url(#e)" stroke-width="6" fill="#000" xlink:href="#b"/>
            <path fill="#FFF" d="M19.037 20.894h9.622v1.874h-9.623zM16.102 16.038l-3.953-2.09 2.867-7.11-8.472 7.635 3.722 2.518-2.637 6.684z"/>
        </g>
    </g>
</svg>
